<svg xmlns="http://www.w3.org/2000/svg" viewBox="0 0 503.05 169.33">
  <defs>
    <style>
      .cls-1 {
        fill: #f7941d;
      }

      .cls-2 {
        font-size: 77.3px;
        font-family: ChalkboardSE-Bold, Chalkboard SE;
        font-weight: 700;
      }

      .cls-10, .cls-2 {
        fill: #eee;
      }

      .cls-3 {
        letter-spacing: 0.01em;
      }

      .cls-4 {
        letter-spacing: -0.01em;
      }

      .cls-5 {
        letter-spacing: 0.02em;
      }

      .cls-6 {
        letter-spacing: -0.02em;
      }

      .cls-7 {
        letter-spacing: 0.02em;
      }

      .cls-8 {
        letter-spacing: 0.04em;
      }

      .cls-9 {
        letter-spacing: 0.08em;
      }
    </style>
  </defs>
  <g id="Layer_2" data-name="Layer 2">
    <g id="Layer_1-2" data-name="Layer 1">
      <path class="cls-1" d="M397.56,49.38s-4.08-19.25-7.11-32.45l12.44-1.3,2.89,12.89L414.36,0l10.23,4.93-8.11,26.94,13.66-4,3.84,10L410.3,52.12Z"/>
      <text class="cls-2" transform="translate(50.94 98.08)"><tspan class="cls-3">a</tspan><tspan x="44.07" y="0">sy G</tspan><tspan class="cls-4" x="207.29" y="0">r</tspan><tspan class="cls-5" x="241.71" y="0">o</tspan><tspan class="cls-6" x="282.37" y="0">c</tspan><tspan class="cls-7" x="320.38" y="0">e</tspan><tspan class="cls-8" x="364.45" y="0">r</tspan><tspan class="cls-9" x="402.8" y="0">y</tspan></text>
      <polygon class="cls-10" points="50 48.33 16 48.33 21 71.33 44 71.33 38 84.33 25 84.33 35 129.33 434.95 123.81 440 137.33 27 142.33 0 36.33 68.4 36.33 50 48.33"/>
      <ellipse class="cls-10" cx="163" cy="156.83" rx="16" ry="12.5"/>
      <ellipse class="cls-10" cx="403" cy="151.83" rx="13.44" ry="10.5"/>
    </g>
  </g>
</svg>
